<svg width="76" height="63" viewBox="0 0 76 63" fill="none" xmlns="http://www.w3.org/2000/svg">
<path opacity="0.21" d="M52.8018 0C65.5041 0.000125837 75.8016 10.2977 75.8018 23V39.6094C75.8016 52.3117 65.5041 62.6092 52.8018 62.6094H23C10.2976 62.6094 0.000183044 52.3118 0 39.6094V23C0.000194316 10.2976 10.2976 4.62292e-07 23 0H52.8018Z" fill="#FEC53D"/>
<path fill-rule="evenodd" clip-rule="evenodd" d="M18.9503 25.374L35.2483 33.1459C35.4238 33.2296 35.6078 33.2901 35.7951 33.3284V48.4017L20.1127 40.7361C19.3922 40.3839 18.9503 39.7438 18.9503 39.0523V25.374ZM56.851 25.167V39.052C56.851 39.7434 56.4091 40.3836 55.6887 40.7357L40.0063 48.4013V33.196C40.0445 33.1802 40.0823 33.1634 40.1198 33.1455L56.851 25.167Z" fill="#FEC53D"/>
<path opacity="0.499209" fill-rule="evenodd" clip-rule="evenodd" d="M19.4624 21.6017C19.6615 21.3941 19.9127 21.2186 20.2057 21.0897L36.7873 13.7951C37.4834 13.4889 38.3183 13.4889 39.0144 13.7951L55.596 21.0897C55.8218 21.189 56.0229 21.3161 56.1943 21.4642L38.0144 30.1336C37.8949 30.1906 37.7847 30.2558 37.6842 30.3279C37.5838 30.2558 37.4736 30.1906 37.354 30.1336L19.4624 21.6017Z" fill="#FEC53D"/>
</svg>
