<svg width="75" height="61" viewBox="0 0 75 61" fill="none" xmlns="http://www.w3.org/2000/svg">
<path opacity="0.21" d="M51.4277 0C64.1302 0.00013652 74.4277 10.2975 74.4277 23V37.4336C74.4277 50.1361 64.1302 60.4335 51.4277 60.4336H23C10.2975 60.4336 0 50.1361 0 37.4336V23C0 10.2975 10.2975 0 23 0H51.4277Z" fill="#4AD991"/>
<path d="M23.7065 41.1853H52.6505C53.7162 41.1853 54.5801 41.8868 54.5801 42.7521C54.5801 43.6174 53.7162 44.3189 52.6505 44.3189H21.7769C20.7112 44.3189 19.8473 43.6174 19.8473 42.7521V17.683C19.8473 16.8177 20.7112 16.1162 21.7769 16.1162C22.8426 16.1162 23.7065 16.8177 23.7065 17.683V41.1853Z" fill="#4AD991"/>
<path opacity="0.5" d="M30.903 34.4224C30.1741 35.0537 28.953 35.0857 28.1755 34.4938C27.3981 33.902 27.3587 32.9105 28.0876 32.2792L35.3236 26.0119C36.0285 25.4014 37.1998 25.3484 37.9838 25.8917L43.6949 29.8489L51.136 22.1956C51.7963 21.5164 53.0097 21.4005 53.8462 21.9367C54.6826 22.4729 54.8254 23.4582 54.165 24.1374L45.4818 33.0682C44.8036 33.7658 43.5474 33.8661 42.7148 33.2892L36.8795 29.246L30.903 34.4224Z" fill="#4AD991"/>
</svg>
