<svg width="75" height="63" viewBox="0 0 75 63" fill="none" xmlns="http://www.w3.org/2000/svg">
<path opacity="0.21" d="M51.8857 0C64.5881 0.000132493 74.8856 10.2977 74.8857 23V39.6094C74.8856 52.3117 64.5881 62.6092 51.8857 62.6094H23C10.2976 62.6094 0.000183044 52.3118 0 39.6094V23C0.000194316 10.2976 10.2976 5.53269e-07 23 0H51.8857Z" fill="#8280FF"/>
<path opacity="0.587821" d="M47.4277 25.7393C50.1849 25.7393 52.4199 27.6079 52.4199 29.9131C52.4197 32.2181 50.1847 34.0869 47.4277 34.0869C44.6707 34.0869 42.4358 32.2181 42.4355 29.9131C42.4355 27.6079 44.6705 25.7393 47.4277 25.7393ZM32.4502 18.7822C36.1265 18.7822 39.1064 21.2741 39.1064 24.3477C39.1061 27.421 36.1263 29.9121 32.4502 29.9121C28.7742 29.912 25.7942 27.421 25.7939 24.3477C25.7939 21.2741 28.774 18.7823 32.4502 18.7822Z" fill="#8280FF"/>
<path d="M32.4225 32.6953C40.3901 32.6953 46.9368 35.8861 47.4244 42.7129C47.4439 42.9849 47.4236 43.8262 46.1735 43.8262H18.6842C18.2669 43.8262 17.4392 43.0736 17.4742 42.7119C18.1193 36.0717 24.5655 32.6954 32.4225 32.6953ZM46.7653 35.4805C52.4332 35.5327 57.0612 37.9279 57.4098 42.9912C57.4238 43.1952 57.4093 43.8262 56.5065 43.8262H50.0905C50.0904 40.6953 48.8529 37.8053 46.7653 35.4805Z" fill="#8280FF"/>
</svg>
